:SAMPLES-PER-SECOND 30
:FULLY-SPECIFIED
:DEGREES
398
root  -6.73114 38.4358 11.3909 179.277 25.538 177.611
RightUpLeg  -9.31979 -8.57595 -4.92656
RightLeg  31.639 -10.6358 -7.23585
RightFoot  -16.9581 0.615251 14.8264
RightToes  -1.74624e-010 0 -3.6325e-017
Spine  7.18277 -0.107805 -8.93576
Spine1  24.2496 -1.3267 1.7642
HEad  -12.0907 25.147 -5.85214
LeftShoulder1  0.792975 -0.448736 -13.0284
LeftArm  12.0533 3.24896 -57.8863
LeftForeArm  79.1163 -79.4553 -88.8198
LeftHand  -2.00127 -3.09396 27.192
RightShoulder  0.549523 -0.425755 10.7046
RightArm  10.9932 -11.4366 62.0796
RightForeArm  150.455 64.1252 157.676
RightHand  -1.48455 5.4162 -16.146
LeftUpLeg  -13.3187 7.75558 4.04618
LeftLeg  33.4414 0.931818 1.01486
LeftFoot  -12.5608 -0.0583065 -12.3945
LeftToes  3.7286e-011 -1.5702e-010 -9.70233e-012
399
root  -6.83707 38.0119 11.5635 178.709 27.9492 178.911
RightUpLeg  -9.76361 -6.37078 -3.5006
RightLeg  33.5373 -10.3033 -7.52083
RightFoot  -19.0008 0.784723 13.5777
RightToes  -1.74624e-010 0 -3.6325e-017
Spine  7.75208 0.282023 -6.75251
Spine1  25.0082 -0.228439 0.670003
HEad  -13.1931 25.9107 -6.65184
LeftShoulder1  0.851757 -0.677429 -13.3657
LeftArm  11.9451 2.88068 -57.8421
LeftForeArm  68.1934 -79.2268 -76.2434
LeftHand  -2.1082 -3.2229 28.1656
RightShoulder  0.580632 -0.284934 10.9065
RightArm  10.2153 -9.92401 62.0996
RightForeArm  150.074 64.795 156.995
RightHand  -1.53945 5.51705 -16.5765
LeftUpLeg  -15.1912 9.26205 5.94868
LeftLeg  39.7142 0.527205 0.844261
LeftFoot  -12.8066 -0.100268 -13.9569
LeftToes  3.7286e-011 -1.5702e-010 -9.70233e-012
400
root  -6.98637 37.7537 11.6553 178.039 29.8923 -179.825
RightUpLeg  -9.7003 -5.53436 -2.46886
RightLeg  35.1959 -9.51608 -7.40348
RightFoot  -19.6316 0.794115 12.747
RightToes  -1.74624e-010 0 -3.6325e-017
Spine  8.51082 0.420442 -4.7725
Spine1  25.8528 0.449385 -0.00570057
HEad  -14.0743 26.8646 -7.83285
LeftShoulder1  0.95727 -1.03214 -14.1708
LeftArm  11.6485 3.39976 -58.2887
LeftForeArm  58.5486 -78.5791 -65.519
LeftHand  -2.26892 -3.31253 29.9127
RightShoulder  0.657029 0.103513 11.0933
RightArm  9.82483 -9.10233 61.84
RightForeArm  149.247 65.5765 156.118
RightHand  -1.56797 5.537 -16.8446
LeftUpLeg  -16.6944 9.95782 7.83151
LeftLeg  45.115 -0.115554 0.28972
LeftFoot  -10.7684 0.145906 -15.7343
LeftToes  3.7286e-011 -1.5702e-010 -9.70233e-012
401
root  -7.14569 37.7209 11.6197 177.391 30.7324 -179.128
RightUpLeg  -8.71456 -6.17541 -2.36886
RightLeg  35.0704 -8.50355 -6.63514
RightFoot  -19.6564 0.786074 12.6089
RightToes  -1.74624e-010 0 -3.6325e-017
Spine  8.88453 0.253625 -3.94015
Spine1  26.5323 0.384123 0.132893
HEad  -13.9913 27.7337 -8.61145
LeftShoulder1  1.04107 -1.1606 -15.5183
LeftArm  11.9502 4.75885 -58.865
LeftForeArm  53.9971 -78.1521 -61.5003
LeftHand  -2.39663 -3.30442 31.5402
RightShoulder  0.712418 0.357831 11.3517
RightArm  10.0711 -9.49312 61.224
RightForeArm  148.663 65.9451 155.663
RightHand  -1.53745 5.45695 -16.6432
LeftUpLeg  -17.4646 8.56926 8.81966
LeftLeg  48.2009 -0.678688 -0.379865
LeftFoot  -7.84651 0.567853 -17.0315
LeftToes  3.7286e-011 -1.5702e-010 -9.70233e-012
402
root  -7.30866 37.8564 11.4855 177.227 31.0008 -178.899
RightUpLeg  -7.6877 -6.59706 -2.70988
RightLeg  33.4745 -7.93951 -5.87358
RightFoot  -18.9582 0.724152 12.7709
RightToes  -1.74624e-010 0 -3.6325e-017
Spine  8.5816 0.0321463 -3.93306
Spine1  26.8094 0.0187832 0.645475
HEad  -13.1392 28.3458 -8.5322
LeftShoulder1  1.01927 -0.830685 -16.813
LeftArm  13.0432 6.7338 -59.6353
LeftForeArm  55.2276 -78.3195 -63.5499
LeftHand  -2.41553 -3.31793 31.723
RightShoulder  0.704308 0.227925 11.8339
RightArm  10.813 -11.0857 60.3613
RightForeArm  148.894 65.6614 155.988
RightHand  -1.50322 5.4327 -16.3199
LeftUpLeg  -17.6178 5.77286 8.98705
LeftLeg  48.711 -1.37027 -1.23121
LeftFoot  -6.30739 0.798588 -17.2254
LeftToes  3.7286e-011 -1.5702e-010 -9.70233e-012
403
root  -7.50205 38.0886 11.2786 177.58 31.3236 -178.969
RightUpLeg  -7.067 -5.9962 -3.11783
RightLeg  31.2749 -8.28698 -5.64442
RightFoot  -17.5518 0.587645 12.9875
RightToes  -1.74624e-010 0 -3.6325e-017
Spine  7.86087 -0.156133 -4.08729
Spine1  26.6302 -0.231447 0.856555
HEad  -12.4202 28.8208 -8.1088
LeftShoulder1  0.917428 -0.304814 -17.4167
LeftArm  14.2311 9.26161 -60.7392
LeftForeArm  61.1742 -78.8038 -68.6216
LeftHand  -2.32111 -3.50091 29.9504
RightShoulder  0.657412 -0.111975 12.4059
RightArm  11.6164 -13.4239 59.6014
RightForeArm  149.655 65.008 156.74
RightHand  -1.4844 5.46906 -16.0699
LeftUpLeg  -17.1828 2.49632 8.67629
LeftLeg  46.7063 -1.95178 -1.79855
LeftFoot  -6.78022 0.688068 -16.13
LeftToes  3.7286e-011 -1.5702e-010 -9.70233e-012
404
root  -7.73398 38.3456 11.0129 178.317 32.012 -179.166
RightUpLeg  -6.80886 -4.91471 -3.60969
RightLeg  28.8949 -8.98219 -5.57456
RightFoot  -16.0462 0.440098 13.3226
RightToes  -1.74624e-010 0 -3.6325e-017
Spine  6.85425 -0.266884 -4.02986
Spine1  26.1536 -0.222013 0.57453
HEad  -12.3225 29.2717 -8.14808
LeftShoulder1  0.848094 -0.0107423 -17.4667
LeftArm  14.9802 11.978 -61.8221
LeftForeArm  69.284 -79.2788 -74.1443
LeftHand  -2.196 -3.93961 27.1495
RightShoulder  0.617909 -0.361411 12.7259
RightArm  12.0535 -16.0443 59.2493
RightForeArm  150.399 64.3715 157.439
RightHand  -1.43648 5.44153 -15.6039
LeftUpLeg  -16.2348 -1.08121 8.15553
LeftLeg  42.6195 -1.70531 -1.3064
LeftFoot  -8.2903 0.438802 -14.5493
LeftToes  3.7286e-011 -1.5702e-010 -9.70233e-012
405
root  -8.01052 38.5171 10.6948 179.132 33.0641 -179.312
RightUpLeg  -6.87455 -4.01316 -4.28223
RightLeg  26.9937 -9.03968 -5.20741
RightFoot  -15.0652 0.347684 13.7888
RightToes  -1.74624e-010 0 -3.6325e-017
Spine  5.75873 -0.272548 -3.5975
Spine1  25.6343 0.0247273 -0.02279
HEad  -12.5738 29.6368 -8.75943
LeftShoulder1  0.842519 0.0185675 -17.5139
LeftArm  15.4853 14.0445 -62.4579
LeftForeArm  76.2766 -79.5938 -78.7726
LeftHand  -2.09988 -4.45362 24.7082
RightShoulder  0.604131 -0.423508 12.6746
RightArm  11.9964 -18.3551 59.1706
RightForeArm  150.796 63.9104 157.911
RightHand  -1.37795 5.3817 -15.0698
LeftUpLeg  -14.7784 -4.77458 7.48549
LeftLeg  37.8984 -0.21952 0.176602
LeftFoot  -10.3437 0.178613 -13.4883
LeftToes  3.7286e-011 -1.5702e-010 -9.70233e-012
406
root  -8.33202 38.5489 10.3675 179.628 34.4567 -179.399
RightUpLeg  -7.33654 -2.99849 -5.06513
RightLeg  26.3945 -8.5383 -4.81401
RightFoot  -14.6617 0.31419 14.2187
RightToes  -1.74624e-010 0 -3.6325e-017
Spine  4.89939 -0.15365 -3.11932
Spine1  25.3691 0.393926 -0.693901
HEad  -12.8839 29.9576 -9.4959
LeftShoulder1  0.833265 0.0823588 -17.7093
LeftArm  15.9354 14.6877 -62.7747
LeftForeArm  78.8766 -79.6874 -80.7288
LeftHand  -2.01032 -4.66347 23.2199
RightShoulder  0.613521 -0.34657 12.4705
RightArm  11.6711 -19.389 58.9573
RightForeArm  150.639 63.7678 158.025
RightHand  -1.40246 5.45174 -15.2308
LeftUpLeg  -12.9232 -6.81455 6.57167
LeftLeg  34.1582 1.56146 1.50596
LeftFoot  -13.0179 -0.106369 -12.633
LeftToes  3.7286e-011 -1.5702e-010 -9.70233e-012
407
root  -8.66012 38.4961 10.1186 179.361 36.1575 -179.803
RightUpLeg  -7.98344 -1.18236 -5.98372
RightLeg  27.0913 -8.39175 -4.86867
RightFoot  -14.6127 0.317686 14.5414
RightToes  -1.74624e-010 0 -3.6325e-017
Spine  4.60565 0.178232 -3.68856
Spine1  25.5119 0.669341 -0.894858
HEad  -13.3533 30.4113 -10.1201
LeftShoulder1  0.803259 0.217776 -17.8026
LeftArm  16.0987 13.6843 -62.9738
LeftForeArm  75.5665 -79.5653 -78.0425
LeftHand  -1.93526 -4.46666 22.8177
RightShoulder  0.641186 -0.188123 12.3587
RightArm  11.3148 -18.4983 58.6209
RightForeArm  150.121 64.1851 157.583
RightHand  -1.51576 5.64652 -16.1452
LeftUpLeg  -10.8812 -5.26941 5.37587
LeftLeg  31.6538 1.99527 1.68745
LeftFoot  -15.7262 -0.325126 -10.9632
LeftToes  3.7286e-011 -1.5702e-010 -9.70233e-012
